<?xml version="1.0" encoding="utf-8"?>
<!-- Generator: Adobe Illustrator 22.0.1, SVG Export Plug-In . SVG Version: 6.00 Build 0)  -->
<svg version="1.1" id="Слой_1" xmlns="http://www.w3.org/2000/svg" xmlns:xlink="http://www.w3.org/1999/xlink" x="0px" y="0px"
	 viewBox="0 0 16 16" style="enable-background:new 0 0 16 16;" xml:space="preserve">
<style type="text/css">
	.st0{fill:url(#SVGID_1_);}
	.st1{fill:none;stroke:#000000;stroke-width:0.25;stroke-miterlimit:10;}
</style>
<linearGradient id="SVGID_1_" gradientUnits="userSpaceOnUse" x1="1.7976" y1="15.7347" x2="10.9249" y2="-7.433258e-02">
	<stop  offset="0" style="stop-color:#18E3D6"/>
	<stop  offset="0.1508" style="stop-color:#61ADBF"/>
	<stop  offset="0.3194" style="stop-color:#AD75A8"/>
	<stop  offset="0.4401" style="stop-color:#DD529A"/>
	<stop  offset="0.5" style="stop-color:#EF4594"/>
	<stop  offset="0.5494" style="stop-color:#E84897"/>
	<stop  offset="0.6214" style="stop-color:#D44F9E"/>
	<stop  offset="0.7074" style="stop-color:#B45CAB"/>
	<stop  offset="0.8041" style="stop-color:#886EBC"/>
	<stop  offset="0.9084" style="stop-color:#5084D2"/>
	<stop  offset="1" style="stop-color:#189AE7"/>
</linearGradient>
<path class="st0" d="M2,0.4v15.3C2,15.8,2.2,16,2.4,16h2.9c0.2,0,0.4-0.2,0.4-0.4v-3.5c0-0.2,0.2-0.4,0.4-0.4h4.6c0.1,0,0.1,0,0.2,0
	c0.4,0,2-0.5,3.1-1.9C14.7,8.8,15.1,7,15,5.7C15,4.5,14.7,3,13.9,2c-1.1-1.4-3-2-3.6-2c0,0-0.1,0-0.1,0H2.4C2.2,0,2,0.2,2,0.4z"/>
<path class="st1" d="M3.8,10l6.1,0c0,0,3.1-0.9,3.2-4.1c0-3.2-2.5-4.1-2.9-4.2c0,0-0.1,0-0.1,0H4.2c-0.3,0-0.5,0.2-0.5,0.5v12.7"/>
<path d="M9.6,8H6.3C6.1,8,5.9,7.8,5.9,7.7V4v0c0-0.2,0.2-0.3,0.4-0.3h3.3c0,0,0.1,0.1,0.2,0.2c1.3,1.1,1.3,2.8,0,3.9
	C9.8,7.9,9.7,8,9.6,8z"/>
</svg>
